<?xml version="1.0" standalone="no"?>
<!DOCTYPE svg PUBLIC "-//W3C//DTD SVG 20010904//EN"
 "http://www.w3.org/TR/2001/REC-SVG-20010904/DTD/svg10.dtd">
<svg version="1.0" xmlns="http://www.w3.org/2000/svg"
 width="260.000000pt" height="260.000000pt" viewBox="0 0 260.000000 260.000000"
 preserveAspectRatio="xMidYMid meet">
<metadata>
Created by potrace 1.11, written by Peter Selinger 2001-2013
</metadata>
<g transform="translate(0.000000,260.000000) scale(0.100000,-0.100000)"
fill="#000000" stroke="none">
<path d="M0 2284 c0 -293 1 -316 17 -310 16 6 16 6 0 -12 -21 -23 -25 -176 -5
-188 7 -5 9 -2 5 9 -4 11 -2 14 9 10 20 -8 17 -24 -6 -30 -20 -5 -20 -14 -20
-884 l0 -879 1300 0 1300 0 0 1300 0 1300 -1300 0 -1300 0 0 -316z m360 211
c0 -8 -4 -15 -10 -15 -5 0 -10 7 -10 15 0 8 5 15 10 15 6 0 10 -7 10 -15z m40
-81 c0 -8 -19 -13 -24 -6 -3 5 1 9 9 9 8 0 15 -2 15 -3z m1163 -293 c21 -5 41
-11 43 -14 3 -2 -11 -80 -31 -172 -19 -93 -34 -169 -32 -171 1 -1 38 -9 81
-17 162 -33 293 -120 354 -235 37 -70 44 -103 44 -196 -1 -175 -83 -341 -222
-450 -108 -85 -235 -130 -399 -140 -46 -3 -85 -7 -86 -8 -1 -2 -10 -46 -21
-98 l-19 -95 -146 -3 -147 -3 19 83 c29 128 29 128 -33 128 -102 0 -216 43
-289 108 -49 44 -100 130 -119 201 -15 57 -15 204 1 267 54 221 254 373 571
435 l115 23 29 143 30 143 -25 0 c-14 0 -55 -5 -91 -10 -187 -30 -259 -92
-246 -212 l6 -58 -43 0 c-53 0 -127 36 -145 70 -8 15 -11 47 -9 78 6 79 59
129 187 172 114 39 210 50 405 45 99 -2 197 -8 218 -14z m-813 -316 c0 -8 -4
-15 -10 -15 -5 0 -7 7 -4 15 4 8 8 15 10 15 2 0 4 -7 4 -15z m-93 -17 c-2 -7
-1 -20 4 -29 5 -10 4 -16 -5 -16 -7 0 -13 7 -12 16 1 9 -5 15 -11 14 -14 -3
-17 9 -6 20 11 12 35 8 30 -5z m-622 -68 c-3 -6 1 -13 9 -16 9 -3 13 -11 9
-17 -4 -6 -11 -3 -20 8 -16 23 -17 35 -2 35 5 0 7 -5 4 -10z"/>
<path d="M1135 1631 c-80 -29 -128 -56 -172 -99 -95 -93 -138 -226 -131 -406
5 -123 25 -180 82 -240 28 -29 120 -75 130 -65 2 2 25 103 50 224 25 121 63
306 86 410 22 105 40 191 40 193 0 7 -41 -1 -85 -17z"/>
<path d="M1502 1588 c-12 -58 -59 -277 -133 -618 -16 -75 -29 -140 -29 -144 0
-17 96 4 157 34 109 54 199 178 239 330 22 85 22 221 0 288 -28 82 -107 150
-196 168 -24 5 -26 2 -38 -58z"/>
</g>
</svg>
