<svg width="24" height="24" viewBox="0 0 24 24" fill="none" xmlns="http://www.w3.org/2000/svg">
<path fill-rule="evenodd" clip-rule="evenodd" d="M20.9999 16.92V19.92C21.0022 20.4832 20.767 21.0212 20.352 21.4019C19.937 21.7826 19.3808 21.9707 18.8199 21.92C15.7428 21.5856 12.7869 20.5342 10.1899 18.85C7.77377 17.3147 5.72528 15.2662 4.18994 12.85C2.49992 10.2412 1.44818 7.271 1.11994 4.18001C1.06941 3.62088 1.25621 3.06626 1.63471 2.65163C2.0132 2.237 2.54853 2.00054 3.10994 2.00001H6.10994C7.1138 1.99013 7.96944 2.72597 8.10994 3.72001C8.23656 4.68007 8.47139 5.62273 8.80994 6.53001C9.08468 7.26088 8.90896 8.08481 8.35994 8.64001L7.08994 9.91001C8.5135 12.4136 10.5864 14.4865 13.0899 15.91L14.3599 14.64C14.9151 14.091 15.7391 13.9153 16.4699 14.19C17.3772 14.5286 18.3199 14.7634 19.2799 14.89C20.2855 15.0319 21.0251 15.9048 20.9999 16.92Z" stroke="#31405B" stroke-width="2" stroke-linecap="round" stroke-linejoin="round"/>
</svg>
